<svg enable-background="new 0 0 100 100" height="512" viewBox="0 0 100 100" width="512" xmlns="http://www.w3.org/2000/svg"><path d="m47.7102814 11.8703175c-4.2855797 3.3558445-14.5716591 9.5404739-30.7288094 7.939455-2.1750288-.2155247-4.0698576 1.4717674-4.0698576 3.6574478v14.0458145s.1896992 44.5580711 36.3909416 51.3450279c.4568443.0856476.9380455.0856476 1.3948898 0 36.2012444-6.7869568 36.3909416-51.3450279 36.3909416-51.3450279v-14.0458145c0-2.1856804-1.8948288-3.8729725-4.0698547-3.6574478-16.1571503 1.6010189-26.4432335-4.5836105-30.7288132-7.939455-1.3496179-1.0568238-3.2298211-1.0568238-4.5794381 0z" fill="#ededed"/><path d="m81.0422058 26.0219688v11.4899902c0 .2800293-.0300293 1.7600098-.25 4.0200195-.2200317 2.2600098-.6300049 5.3098145-1.4100342 8.7299805-1.3800049 6.0100098-3.8800049 13.1899414-8.460022 19.3498497-4.5899658 6.1601562-11.2399864 11.3000488-20.9199791 13.2202148-19.3499755-3.8500975-26.6300048-20.5400351-29.3800048-32.5700644-1.5599976-6.8500977-1.6599731-12.1999512-1.6599731-12.7900391v-11.4499512c1.0700073.0600586 2.1400146.1000977 3.1900024.1000977 13.4599609-.0102539 22.789978-4.8500977 27.8499756-8.4401855 5.0599976 3.5900879 14.3900108 8.4401855 27.840023 8.4401855 1.0599976 0 2.1199951-.0400391 3.2000122-.1000977z" fill="#fb7833"/><g fill="#feda6f"><path d="m77.8435745 26.1175156c-13.4527588 0-22.781189-4.8449707-27.8435669-8.4309082v32.5734863h29.3777466c1.5610352-6.8413086 1.6583252-12.173584 1.6629639-12.7470703v-11.486084c-1.0748902.0600586-2.1419068.0905762-3.1971436.0905762z"/><path d="m50.0000076 82.8333359v-32.5732422h-29.3756084c2.744873 12.0302734 10.0254516 28.7214355 29.3756084 32.5732422z"/></g></svg>