<?xml version="1.0"?>
<svg xmlns="http://www.w3.org/2000/svg" xmlns:xlink="http://www.w3.org/1999/xlink" version="1.1" id="Capa_1" x="0px" y="0px" viewBox="0 0 468.293 468.293" style="enable-background:new 0 0 468.293 468.293;" xml:space="preserve" width="512px" height="512px" class="">
<g>
	<path style="fill:#d67046" d="M462.018,22.977c-2.373,56.945-6.619,135.431-25.85,211.232  c-26.599,105.022-82.107,204.675-201.99,234.021c-0.125,0.063-0.188,0.063-0.25,0.063  C124.847,439.009,68.777,339.293,39.118,234.209C17.764,158.595,10.084,80.171,6.275,23.29  c28.534,12.238,59.879,18.982,92.846,18.982c50.076,0,96.469-15.672,134.744-42.271c0.063,0.062,0.188,0.125,0.313,0.188  c38.15,26.474,84.418,42.084,134.369,42.084C401.764,42.271,433.357,35.402,462.018,22.977z" data-original="#E56353" class="active-path" data-old_color="#E56353"/>
	<g>
		<path style="fill:#db9884" d="M375.851,82.107L126.095,331.863c-2.248-3.496-4.495-6.867-6.619-10.489   c-4.308-7.367-8.303-14.985-11.988-22.79c-3.559-7.493-6.868-15.173-9.866-22.978c-5.306-13.55-9.864-27.411-13.799-41.397   c-0.25-0.749-0.437-1.498-0.687-2.248c-0.562-2.122-1.124-4.183-1.685-6.306c-7.742-29.409-12.988-59.13-16.547-86.79   c-3.184-24.601-5.12-47.578-6.431-67.247c22.04,9.428,46.205,14.674,71.617,14.674c26.786,0,52.136-5.932,74.989-16.36   c10.115-4.62,19.793-9.99,28.847-16.234c0.063,0.063,0.125,0.063,0.25,0.125c3.684,2.56,7.43,4.995,11.301,7.243   c3.871,2.309,7.805,4.433,11.864,6.431c24.289,11.988,51.512,18.794,80.421,18.794C350.813,86.291,363.551,84.792,375.851,82.107z" data-original="#CE412D" class="" data-old_color="#CE412D"/>
		<path style="fill:#db9884" d="M406.572,126.189c-0.313,3.747-0.562,7.368-0.874,11.177c-0.749,8.055-1.623,16.296-2.622,24.663   c-0.188,1.124-0.313,2.248-0.438,3.372c-0.937,7.305-1.998,14.673-3.184,22.104c-0.25,1.436-0.5,2.872-0.749,4.308   c-2.31,14.049-5.245,28.285-8.867,42.396c-0.624,2.559-1.248,5.12-1.936,7.617c-21.291,78.049-64.249,150.79-153.724,172.768   c-0.125,0-0.188,0.063-0.25,0.063c-13.549-3.621-26.037-8.678-37.588-14.985c-9.366-5.058-18.044-11.052-26.224-17.671   c-3.559-2.872-6.994-5.869-10.303-8.991c0,0-0.063,0-0.063-0.063L406.572,126.189z" data-original="#CE412D" class="" data-old_color="#CE412D"/>
	</g>
</g>
</svg>
