<svg id="Layer_1_1_" enable-background="new 0 0 64 64" height="512" viewBox="0 0 64 64" width="512" xmlns="http://www.w3.org/2000/svg"><path d="m17.263 36.136c.169 4.403 1.857 10.762 1.996 13.68.104 2.198-1.259 4.184-1.259 4.184h28s-1.38-2.178-1.292-4.184c.129-2.932 1.813-9.11 1.989-13.694l-14.697-5.122z" fill="#cfcfcf"/><g fill="#b8b8b8"><path d="m32 31-14.737 4.912c.055 1.379.275 2.959.548 4.558l14.169-5.506 14.244 5.102c.236-1.442.421-2.871.473-4.167z"/><path d="m43.757 43.25-6.143-1.536c-3.672-.916-7.556-.918-11.229 0l-6.143 1.536-.485-1.939 6.143-1.536c3.99-.998 8.209-.998 12.199 0l6.143 1.536z"/><path d="m42.757 48-5.143-1.286c-3.672-.917-7.556-.917-11.229 0l-5.142 1.286-.485-1.939 5.143-1.286c3.99-.998 8.209-.998 12.199 0l5.143 1.286z"/></g><path d="m49.914 23.956-3.914-14.956-2-1-5 4h-7-7l-5-4-2 1-4.022 14.927.022 9.818c0 1.602 1.569 2.732 3.088 2.226l.174-.058 14.738-4.913 14.912 4.971c1.519.506 3.088-.625 3.088-2.226z" fill="#bebebe"/><path d="m25 60h14l-3-3 3-3h-14l3 3z" fill="#bebebe"/><path d="m39.707 53.293-3 3c-.391.391-.391 1.024 0 1.414l3 3c.188.188.442.293.707.293h5.586c.552 0 1-.448 1-1v-6c0-.552-.448-1-1-1h-5.586c-.265 0-.519.105-.707.293z" fill="#ab7b20"/><path d="m23.586 53h-5.586c-.552 0-1 .448-1 1v6c0 .552.448 1 1 1h5.586c.265 0 .52-.105.707-.293l3-3c.391-.391.391-1.024 0-1.414l-3-3c-.188-.188-.442-.293-.707-.293z" fill="#ab7b20"/><path d="m39 58h-3c-.552 0-1-.448-1-1 0-.552.448-1 1-1h3c.552 0 1 .448 1 1 0 .552-.448 1-1 1z" fill="#707070"/><path d="m28 58h-3c-.552 0-1-.448-1-1 0-.552.448-1 1-1h3c.552 0 1 .448 1 1 0 .552-.448 1-1 1z" fill="#707070"/><path d="m31 12h2v19h-2z" fill="#a8a8a8"/><path d="m18.372 32.929-.743-1.857 9.371-3.749v-9.646l-9.372-3.748.743-1.857 10 4c.38.152.629.519.629.928v11c0 .409-.249.776-.628.929z" fill="#a8a8a8"/><path d="m45.628 32.929-10-4c-.379-.153-.628-.52-.628-.929v-11c0-.409.249-.776.628-.929l10-4 .743 1.857-9.371 3.749v9.646l9.372 3.748z" fill="#a8a8a8"/><path d="m58.003 10.997-.003.003-4.06-4.394c-1.879-1.458-4.06-2.571-6.467-3.213l-1.473-.393v20.698c0 .657.623 1.136 1.258.966l13.742-3.664c0-3.655-1.092-7.106-2.997-10.003z" fill="#707070"/><path d="m10.06 6.606-4.064 4.391c-1.904 2.897-2.996 6.348-2.996 10.003l13.742 3.665c.635.169 1.258-.31 1.258-.967v-20.698l-1.473.393c-2.407.642-4.587 1.754-6.467 3.213z" fill="#707070"/><path d="m50 19 8-8 .003-.003 1.582-1.582c.781-.781.781-2.047 0-2.828l-1.734-1.734c-.932-.932-2.496-.723-3.151.422l-6.7 11.725c1.105 0 2 .895 2 2z" fill="#bebebe"/><path d="m16 17-6.701-11.727c-.654-1.145-2.218-1.354-3.151-.421l-1.734 1.734c-.781.781-.781 2.047 0 2.828l1.582 1.582 8.004 8.004c0-1.105.895-2 2-2z" fill="#bebebe"/><circle cx="16" cy="19" fill="#ab7b20" r="2"/><circle cx="48" cy="19" fill="#ab7b20" r="2"/><path d="m39 12 5-4-3-2-3-3-2 3h-8l-2-3-3 3-3 2 5 4z" fill="#707070"/></svg>