<?xml version="1.0"?>
<svg xmlns="http://www.w3.org/2000/svg" xmlns:xlink="http://www.w3.org/1999/xlink" version="1.1" id="Capa_1" x="0px" y="0px" viewBox="0 0 512.003 512.003" style="enable-background:new 0 0 512.003 512.003;" xml:space="preserve" width="512px" height="512px" class="">
<g>
<path style="fill:#717E88" d="M301.568,363.105l-70.4-15.296v-20.768c3.968-6.16,7.527-12.574,10.656-19.2  c2.432-5.205,5.212-10.24,8.32-15.072c13.292-11.3,22.871-26.344,27.488-43.168c3.345-10.492,1.979-21.919-3.744-31.328  c0.564-17.958-0.939-35.921-4.48-53.536c1.139-15.897-4.009-31.605-14.336-43.744c-7.125-6.582-16.277-10.543-25.952-11.232  c-2.691-0.342-5.347-0.92-7.936-1.728c-14-7.82-29.756-11.96-45.792-12.032c-41.145,1.478-77.713,26.643-93.792,64.544  c-3.877,15.838-5.152,32.201-3.776,48.448v7.808c-5.306,10.016-6.587,21.679-3.584,32.608c4.525,16.856,14.026,31.955,27.264,43.328  c3.206,4.879,6.061,9.98,8.544,15.264c3.159,6.616,6.729,13.029,10.688,19.2v20.768l-70.4,15.296  C21.078,369.77,0.196,395.629,0,425.601v38.4c0,8.837,7.163,16,16,16h320c8.837,0,16-7.163,16-16v-38.4  C351.869,395.541,330.923,369.584,301.568,363.105z" data-original="#455A64" class="" data-old_color="#455A64"/>
<path style="fill:#E3E9ED" d="M461.568,299.105l-70.4-15.296v-20.768c3.968-6.16,7.527-12.574,10.656-19.2  c2.432-5.205,5.212-10.24,8.32-15.072c13.292-11.3,22.871-26.344,27.488-43.168c3.345-10.492,1.979-21.919-3.744-31.328  c0.564-17.958-0.939-35.921-4.48-53.536c1.139-15.897-4.009-31.605-14.336-43.744c-7.147-6.523-16.297-10.427-25.952-11.072  c-2.691-0.342-5.347-0.92-7.936-1.728c-13.986-7.876-29.742-12.071-45.792-12.192c-28.948,1.809-56.055,14.812-75.584,36.256  c11.646,4.111,22.121,10.985,30.528,20.032c17.173,19.245,26.731,44.096,26.88,69.888c3.076,16.095,4.619,32.446,4.608,48.832  c5.904,16.771,6.881,34.883,2.816,52.192c-4.41,19.997-13.874,38.528-27.488,53.824l14.624,3.2  c47.749,10.681,83.095,51.036,87.392,99.776H496c8.837,0,16-7.163,16-16v-38.4C511.869,331.541,490.923,305.584,461.568,299.105z" data-original="#90A4AE" class="active-path" data-old_color="#90A4AE"/>
<path d="M496,416.001h-99.2c-8.837,0-16-7.163-16-16s7.163-16,16-16H480v-22.4c0.137-15.11-10.376-28.231-25.152-31.392L372,312.289  c-7.375-1.584-12.642-8.104-12.64-15.648v-39.04c-0.008-4.246,1.673-8.322,4.672-11.328c3.561-5.329,6.686-10.936,9.344-16.768  c3.633-8.5,8.472-16.432,14.368-23.552c8.682-7.171,15.17-16.642,18.72-27.328c1.367-3.701,1.052-7.815-0.864-11.264  c-2.32-3.99-3.586-8.505-3.68-13.12c0.626-15.744-0.653-31.506-3.808-46.944c-0.415-1.404-0.641-2.857-0.672-4.32  c-0.288-18.304-3.488-21.632-5.792-24.096c-2.672-0.722-5.387-1.278-8.128-1.664c-6.234-0.748-12.295-2.555-17.92-5.344  c-9.19-5.063-19.492-7.767-29.984-7.872c-18.8,1.228-36.531,9.178-49.952,22.4c-6.276,6.221-16.406,6.176-22.627-0.099  c-6.095-6.149-6.193-16.032-0.221-22.301c19.386-19.242,45.2-30.639,72.48-32c15.989,0.09,31.704,4.159,45.728,11.84  c2.581,0.86,5.238,1.471,7.936,1.824c9.901,0.65,19.248,4.802,26.368,11.712c10.2,11.894,15.253,27.354,14.048,42.976  c3.677,17.715,5.202,35.808,4.544,53.888c5.731,9.297,7.133,20.627,3.84,31.04c-4.724,16.891-14.317,32.016-27.584,43.488  c-3.018,4.846-5.743,9.868-8.16,15.04c-3.138,6.621-6.697,13.034-10.656,19.2v20.608l70.4,15.168  c29.532,6.363,50.523,32.608,50.24,62.816v38.4C512,408.838,504.837,416.001,496,416.001z" 
data-original="#000000" class="" style="fill:#717E88" data-old_color="#000000"/>
<path d="M336,480.001H16c-8.837,0-16-7.163-16-16v-38.4c0.14-30.064,21.079-56.025,50.432-62.528l70.4-15.264v-20.768  c-3.96-6.165-7.519-12.578-10.656-19.2c-2.504-5.279-5.369-10.379-8.576-15.264c-13.238-11.373-22.739-26.472-27.264-43.328  c-3.003-10.929-1.722-22.592,3.584-32.608v-7.648c-1.407-16.242-0.164-32.605,3.68-48.448  c16.079-37.901,52.647-63.066,93.792-64.544c16.036,0.072,31.792,4.212,45.792,12.032c2.589,0.808,5.245,1.386,7.936,1.728  c9.655,0.645,18.805,4.549,25.952,11.072c10.327,12.139,15.475,27.847,14.336,43.744c3.541,17.615,5.044,35.578,4.48,53.536  c5.723,9.409,7.089,20.836,3.744,31.328c-4.541,16.89-14.077,32.014-27.36,43.392c-3.108,4.832-5.888,9.867-8.32,15.072  c-3.141,6.619-6.701,13.032-10.656,19.2v20.768l70.4,15.264l0,0c29.279,6.549,50.147,32.462,50.304,62.464v38.4  C352,472.838,344.837,480.001,336,480.001z M32,448.001h288v-22.4c-0.076-15.03-10.543-28.007-25.216-31.264l-82.88-17.984  c-7.363-1.597-12.614-8.114-12.608-15.648v-39.264c0.001-4.282,1.718-8.386,4.768-11.392c3.535-5.272,6.649-10.814,9.312-16.576  c3.64-8.512,8.537-16.43,14.528-23.488c8.61-7.046,15.028-16.405,18.496-26.976c1.504-7.296,0.608-9.056-0.736-11.68  c-2.291-4.035-3.545-8.577-3.648-13.216c0.507-15.684-0.814-31.374-3.936-46.752c-0.392-1.397-0.607-2.838-0.64-4.288  c-0.224-18.368-3.2-21.792-5.888-24.544c-0.64,0-4.832-0.704-7.776-1.216c-6.297-0.72-12.424-2.516-18.112-5.312  c-9.171-5.211-19.532-7.967-30.08-8c-27.825,1.19-52.595,17.984-64,43.392c-2.075,12.204-2.698,24.61-1.856,36.96v9.6  c-0.103,4.639-1.357,9.181-3.648,13.216c-1.344,2.624-2.24,4.384-0.736,11.648c3.416,10.573,9.791,19.945,18.368,27.008  c5.981,7.083,10.907,14.995,14.624,23.488c2.694,5.781,5.851,11.335,9.44,16.608c2.903,3.085,4.576,7.126,4.704,11.36v39.264  c0.006,7.534-5.245,14.051-12.608,15.648l-82.88,17.984C42.35,397.537,31.978,410.578,32,425.601V448.001z" 
data-original="#000000" class="" style="fill:#717E88" data-old_color="#000000"/>
</g>
</svg>
