<?xml version="1.0" encoding="iso-8859-1"?>
<!-- Generator: Adobe Illustrator 19.0.0, SVG Export Plug-In . SVG Version: 6.00 Build 0)  -->
<svg version="1.1" id="Capa_1" xmlns="http://www.w3.org/2000/svg" xmlns:xlink="http://www.w3.org/1999/xlink" x="0px" y="0px"
	 viewBox="0 0 512.001 512.001" style="enable-background:new 0 0 512.001 512.001;" xml:space="preserve">
<g transform="translate(-1)">
	<path style="fill:#5496CE;" d="M407.093,383.382c0.028,51.031-25.919,98.567-68.855,126.146c-2.553,1.639-5.529,2.498-8.563,2.472
		H184.461c-3.089,0.027-6.122-0.83-8.74-2.472c-45.842-29.526-72.062-81.594-68.49-136.005s36.376-102.603,85.685-125.882
		c12.218-5.843,19.988-18.19,19.969-31.733v-92.323h88.276v92.36c-0.092,13.464,7.582,25.775,19.711,31.621
		C373.506,272.302,407.105,325.226,407.093,383.382z"/>
	<path id="SVGCleanerId_0" style="fill:#336A93;" d="M204.058,70.621h105.931c4.875,0,8.828,3.952,8.828,8.828v35.31
		c0,4.875-3.952,8.828-8.828,8.828H204.058c-4.875,0-8.828-3.952-8.828-8.828v-35.31C195.231,74.573,199.183,70.621,204.058,70.621z
		"/>
	<path id="SVGCleanerId_1" style="fill:#336A93;" d="M282.725,282.484c20.249-0.148,39.766,7.561,54.448,21.507
		c24.29,23.183,36.874,56.056,34.274,89.533c-2.601,33.477-20.111,64.012-47.69,83.166H190.201
		c-27.838-19.354-45.392-50.293-47.723-84.118c-2.332-33.824,10.81-66.88,35.729-89.87c14.478-13.19,33.412-20.412,52.997-20.216
		L282.725,282.484z"/>
	<path style="fill:#D69564;" d="M230.541,0h52.966c9.751,0,17.655,7.904,17.655,17.655v52.966h-88.276V17.655
		C212.886,7.904,220.79,0,230.541,0z"/>
	<g>
		
			<circle style="fill:none;stroke:#000000;stroke-width:2;stroke-linecap:round;stroke-linejoin:round;" cx="283.507" cy="353.103" r="35.31"/>
		
			<circle style="fill:none;stroke:#000000;stroke-width:2;stroke-linecap:round;stroke-linejoin:round;" cx="239.369" cy="432.552" r="17.655"/>
	</g>
	<g>
		<path style="fill:#BFA057;" d="M230.541,0h52.966c9.751,0,17.655,7.904,17.655,17.655v70.621h-88.276V17.655
			C212.886,7.904,220.79,0,230.541,0z"/>
		<path style="fill:#5496CE;" d="M407.093,383.382c0.028,51.031-25.919,98.567-68.855,126.146c-2.553,1.639-5.529,2.498-8.563,2.472
			H184.461c-3.089,0.027-6.122-0.83-8.74-2.472c-45.842-29.526-72.062-81.594-68.49-136.005s36.376-102.603,85.685-125.882
			c12.218-5.843,19.988-18.19,19.969-31.733v-101.15h88.276v101.187c-0.092,13.464,7.582,25.775,19.711,31.621
			C373.506,272.302,407.105,325.226,407.093,383.382L407.093,383.382z"/>
	</g>
	<g>
		<path id="SVGCleanerId_0_1_" style="fill:#336A93;" d="M204.058,70.621h105.931c4.875,0,8.828,3.952,8.828,8.828v35.31
			c0,4.875-3.952,8.828-8.828,8.828H204.058c-4.875,0-8.828-3.952-8.828-8.828v-35.31C195.231,74.573,199.183,70.621,204.058,70.621
			z"/>
	</g>
	<g>
		<path id="SVGCleanerId_1_1_" style="fill:#336A93;" d="M282.725,282.484c20.249-0.148,39.766,7.561,54.448,21.507
			c24.29,23.183,36.874,56.056,34.274,89.533c-2.601,33.477-20.111,64.012-47.69,83.166H190.201
			c-27.838-19.354-45.392-50.293-47.723-84.118c-2.332-33.824,10.81-66.88,35.729-89.87c14.478-13.19,33.412-20.412,52.997-20.216
			L282.725,282.484z"/>
	</g>
	<g>
		<circle style="fill:#36B6D6;" cx="283.507" cy="353.103" r="35.31"/>
		<circle style="fill:#36B6D6;" cx="239.369" cy="432.552" r="17.655"/>
		<path style="fill:#36B6D6;" d="M292.334,441.379c-0.592-0.02-1.183-0.079-1.767-0.177c-0.553-0.098-1.089-0.277-1.59-0.53
			c-0.562-0.195-1.095-0.463-1.586-0.797c-0.444-0.349-0.884-0.703-1.323-1.056c-1.612-1.692-2.527-3.93-2.56-6.267
			c0.012-1.154,0.251-2.295,0.703-3.358c0.427-1.08,1.058-2.068,1.857-2.91c2.828-2.86,7.227-3.457,10.715-1.455
			c3.488,2.003,5.191,6.103,4.147,9.987C299.885,438.701,296.356,441.395,292.334,441.379L292.334,441.379z"/>
	</g>
</g>
<g>
</g>
<g>
</g>
<g>
</g>
<g>
</g>
<g>
</g>
<g>
</g>
<g>
</g>
<g>
</g>
<g>
</g>
<g>
</g>
<g>
</g>
<g>
</g>
<g>
</g>
<g>
</g>
<g>
</g>
</svg>
