<?xml version="1.0"?>
<svg xmlns="http://www.w3.org/2000/svg" height="512px" viewBox="0 0 480.50444 480" width="512px" class="">
<g>
<path d="m336 8.28125-184 181.628906-47.40625 46.800782 13.964844 43.570312 9.480468 2.847656 208.34375-274.738281zm0 0" fill="#79bd9a" data-original="#79BD9A" class="active-path" style="fill:#6BA1E2" data-old_color="#79bd9a"/>
<path d="m336.382812 8.390625-208.34375 274.738281 66.578126 19.964844 37.382812-34.277344 240.488281-220.535156zm0 0" fill="#a8dba8" data-original="#A8DBA8" class="" style="fill:#83B2EC" data-old_color="#a8dba8"/>
<path d="m210.023438 288.28125-76.054688-22.816406-13.96875-43.570313-15.40625 14.816407 13.964844 43.570312 76.058594 22.8125zm0 0" fill="#79bd9a" data-original="#79BD9A" class="active-path" style="fill:#6BA1E2" data-old_color="#79bd9a"/>
<path d="m336 8.28125-184 181.628906 26.734375 26.371094 157.648437-207.890625zm0 0" fill="#79bd9a" data-original="#79BD9A" class="active-path" style="fill:#6BA1E2" data-old_color="#79bd9a"/>
<path d="m472.488281 48.28125-136.105469-39.890625-157.648437 207.890625 53.265625 52.535156zm0 0" fill="#cff09e" data-original="#CFF09E" class="" style="fill:#D0EEFF" data-old_color="#cff09e"/>
<path d="m302.558594 376.28125h-45.488282l-58.511718-72-80-24-20.046875-62.5625-56.566407 56.570312-33.945312 33.941407 164.046875 164.050781h186.511719v-40c0-30.929688-25.070313-56-56-56zm0 0" fill="#cff09e" data-original="#CFF09E" class="" style="fill:#D0EEFF" data-old_color="#cff09e"/>
<path d="m289.601562 472.28125c-44.816406-8.734375-85.46875-32.085938-115.585937-66.402344-31.523437-34.40625-50.421875-78.5-53.601563-125.054687l-1.855468-.542969-20.046875-62.5625-56.566407 56.570312-33.945312 33.941407 164.046875 164.050781zm0 0" fill="#79bd9a" data-original="#79BD9A" class="active-path" style="fill:#6BA1E2" data-old_color="#79bd9a"/>
<path d="m349.480469 472.28125h9.078125v-1.921875c-2.984375.785156-6.039063 1.328125-9.078125 1.921875zm0 0" fill="#79bd9a" data-original="#79BD9A" class="active-path" style="fill:#6BA1E2" data-old_color="#79bd9a"/>
<path d="m185.304688 440.28125-154.671876-154.671875-22.632812 22.621094 164.046875 164.050781h186.511719v-32zm0 0" fill="#79bd9a" data-original="#79BD9A" class="active-path" style="fill:#6BA1E2" data-old_color="#79bd9a"/>
<path d="m472 288.28125-72-72v32h-64v56h120zm0 0" fill="#cff09e" data-original="#CFF09E" class="" style="fill:#D0EEFF" data-old_color="#cff09e"/>
<path d="m456 304.28125h-120v24h64v32zm0 0" fill="#79bd9a" data-original="#79BD9A" class="active-path" style="fill:#6BA1E2" data-old_color="#79bd9a"/>
<g fill="#3b8686">
<path d="m302.558594 368.28125h-41.679688l-53.597656-65.945312 30.125-27.65625 240.480469-220.503907c2.144531-1.949219 3.066406-4.902343 2.410156-7.722656-.652344-2.824219-2.78125-5.070313-5.5625-5.878906l-136.488281-40c-2.789063-.816407-5.800782-.058594-7.871094 1.984375l-184 181.601562-38.136719 37.71875-2.109375-6.589844c-.855468-2.652343-3.03125-4.671874-5.738281-5.324218-2.710937-.652344-5.566406.152344-7.535156 2.121094l-90.511719 90.488281c-3.121094 3.125-3.121094 8.1875 0 11.3125l164.054688 164.046875c1.5 1.503906 3.535156 2.34375 5.65625 2.347656h186.503906c4.417968 0 8-3.582031 8-8v-40c-.039063-35.332031-28.667969-63.960938-64-64zm154.066406-316.3125-224.425781 205.808594-68.800781-67.867188 174.875-172.628906zm-304.625 149.183594 68.390625 67.457031-27.832031 25.519531-67.671875-20.296875-11.199219-34.878906zm198.558594 263.128906h-175.199219l-156.046875-156.050781 11.320312-11.3125 149.015626 149.015625c1.5 1.503906 3.535156 2.34375 5.65625 2.347656h165.253906zm-161.941406-32-146.671876-146.671875 52.941407-52.953125 16.058593 50.0625c.800782 2.511719 2.792969 4.464844 5.320313 5.226562l77.597656 23.292969 56.960938 70.089844c1.519531 1.867187 3.800781 2.953125 6.207031 2.953125h45.527344c26.5.027344 47.96875 21.5 48 48zm0 0" data-original="#3B8686" class="" style="fill:#0554C6" data-old_color="#3B8686"/>
<path d="m198.558594 344.28125c0 4.417969-3.582032 8-8 8-4.417969 0-8-3.582031-8-8 0-4.421875 3.582031-8 8-8 4.417968 0 8 3.578125 8 8zm0 0" data-original="#3B8686" class="" style="fill:#0554C6" data-old_color="#3B8686"/>
<path d="m222.558594 376.28125c0 4.417969-3.582032 8-8 8-4.417969 0-8-3.582031-8-8 0-4.421875 3.582031-8 8-8 4.417968 0 8 3.578125 8 8zm0 0" data-original="#3B8686" class="" style="fill:#0554C6" data-old_color="#3B8686"/>
<path d="m8 128.28125h152c4.417969 0 8-3.582031 8-8 0-4.421875-3.582031-8-8-8h-152c-4.417969 0-8 3.578125-8 8 0 4.417969 3.582031 8 8 8zm0 0" data-original="#3B8686" class="" style="fill:#0554C6" data-old_color="#3B8686"/>
<path d="m405.65625 210.625c-2.289062-2.289062-5.730469-2.972656-8.71875-1.734375s-4.9375 4.152344-4.9375 7.390625v24h-56c-4.417969 0-8 3.578125-8 8v80c0 4.417969 3.582031 8 8 8h56v24c0 3.234375 1.949219 6.148438 4.9375 7.386719s6.429688.554687 8.71875-1.734375l72-72c3.121094-3.121094 3.121094-8.1875 0-11.308594zm2.34375 130.34375v-12.6875c0-4.421875-3.582031-8-8-8h-56v-64h56c4.417969 0 8-3.582031 8-8v-12.691406l52.6875 52.691406zm0 0" data-original="#3B8686" class="" style="fill:#0554C6" data-old_color="#3B8686"/>
<path d="m104 72.28125h120c4.417969 0 8-3.582031 8-8 0-4.421875-3.582031-8-8-8h-120c-4.417969 0-8 3.578125-8 8 0 4.417969 3.582031 8 8 8zm0 0" data-original="#3B8686" class="" style="fill:#0554C6" data-old_color="#3B8686"/>
<path d="m184 16.28125h96c4.417969 0 8-3.582031 8-8 0-4.421875-3.582031-8-8-8h-96c-4.417969 0-8 3.578125-8 8 0 4.417969 3.582031 8 8 8zm0 0" data-original="#3B8686" class="" style="fill:#0554C6" data-old_color="#3B8686"/>
</g>
</g> </svg>
